<svg width="51" height="43" viewBox="0 0 51 43" fill="none" xmlns="http://www.w3.org/2000/svg">
<path d="M27.6606 38.3295H23.3391C23.1465 38.3295 22.9619 38.2538 22.8257 38.1191C22.6895 37.9843 22.613 37.8015 22.613 37.6109V2.90171C22.613 2.14392 22.9172 1.41716 23.4586 0.881311C24 0.345467 24.7342 0.0444336 25.4999 0.0444336C26.2655 0.0444336 26.9998 0.345467 27.5411 0.881311C28.0825 1.41716 28.3867 2.14392 28.3867 2.90171V37.6116C28.3865 37.8021 28.3099 37.9847 28.1738 38.1193C28.0376 38.2539 27.853 38.3295 27.6606 38.3295V38.3295ZM24.0652 36.8923H26.9346V2.90171C26.9346 2.5251 26.7834 2.16392 26.5143 1.89761C26.2453 1.63131 25.8804 1.4817 25.4999 1.4817C25.1193 1.4817 24.7544 1.63131 24.4854 1.89761C24.2163 2.16392 24.0652 2.5251 24.0652 2.90171V36.8923Z" fill="#295C7A"/>
<path d="M8.00189 9.67846H5.50933C4.91795 9.66795 4.35438 9.42806 3.93991 9.01041C3.52544 8.59275 3.29321 8.03073 3.29321 7.44531C3.29321 6.85988 3.52544 6.29786 3.93991 5.88021C4.35438 5.46255 4.91795 5.22266 5.50933 5.21216H7.6483C7.84086 5.21216 8.02554 5.28787 8.1617 5.42264C8.29787 5.55741 8.37436 5.7402 8.37436 5.93079C8.37436 6.12138 8.29787 6.30417 8.1617 6.43894C8.02554 6.57371 7.84086 6.64942 7.6483 6.64942H5.50933C5.30025 6.65564 5.10184 6.74222 4.95617 6.8908C4.8105 7.03938 4.72902 7.23827 4.72902 7.44531C4.72902 7.65234 4.8105 7.85124 4.95617 7.99982C5.10184 8.14839 5.30025 8.23497 5.50933 8.24119H8.00189C8.19446 8.24119 8.37913 8.3169 8.51529 8.45167C8.65146 8.58644 8.72795 8.76923 8.72795 8.95982C8.72795 9.15042 8.65146 9.3332 8.51529 9.46797C8.37913 9.60274 8.19446 9.67846 8.00189 9.67846Z" fill="#295C7A"/>
<path d="M23.3394 9.67846H12.394C12.2015 9.67846 12.0168 9.60274 11.8806 9.46797C11.7445 9.3332 11.668 9.15042 11.668 8.95982C11.668 8.76923 11.7445 8.58644 11.8806 8.45167C12.0168 8.3169 12.2015 8.24119 12.394 8.24119H22.6133V6.64942H12.7469C12.5543 6.64942 12.3697 6.57371 12.2335 6.43894C12.0973 6.30417 12.0208 6.12138 12.0208 5.93079C12.0208 5.7402 12.0973 5.55741 12.2335 5.42264C12.3697 5.28787 12.5543 5.21216 12.7469 5.21216H23.3394C23.5319 5.21216 23.7166 5.28787 23.8528 5.42264C23.9889 5.55741 24.0654 5.7402 24.0654 5.93079V8.95982C24.0654 9.15042 23.9889 9.3332 23.8528 9.46797C23.7166 9.60274 23.5319 9.67846 23.3394 9.67846Z" fill="#295C7A"/>
<path d="M38.4479 9.67846H27.6609C27.4683 9.67846 27.2836 9.60274 27.1475 9.46797C27.0113 9.3332 26.9348 9.15042 26.9348 8.95982V5.93079C26.9348 5.7402 27.0113 5.55741 27.1475 5.42264C27.2836 5.28787 27.4683 5.21216 27.6609 5.21216H38.0951C38.2876 5.21216 38.4723 5.28787 38.6085 5.42264C38.7446 5.55741 38.8211 5.7402 38.8211 5.93079C38.8211 6.12138 38.7446 6.30417 38.6085 6.43894C38.4723 6.57371 38.2876 6.64942 38.0951 6.64942H28.3869V8.24119H38.4479C38.6405 8.24119 38.8252 8.3169 38.9613 8.45167C39.0975 8.58644 39.174 8.76923 39.174 8.95982C39.174 9.15042 39.0975 9.3332 38.9613 9.46797C38.8252 9.60274 38.6405 9.67846 38.4479 9.67846Z" fill="#295C7A"/>
<path d="M45.4833 9.67846H42.998C42.8055 9.67846 42.6208 9.60274 42.4846 9.46797C42.3485 9.3332 42.272 9.15042 42.272 8.95982C42.272 8.76923 42.3485 8.58644 42.4846 8.45167C42.6208 8.3169 42.8055 8.24119 42.998 8.24119H45.4833C45.6924 8.23497 45.8908 8.14839 46.0365 7.99982C46.1822 7.85124 46.2636 7.65234 46.2636 7.44531C46.2636 7.23827 46.1822 7.03938 46.0365 6.8908C45.8908 6.74222 45.6924 6.65564 45.4833 6.64942H43.356C43.1634 6.64942 42.9787 6.57371 42.8426 6.43894C42.7064 6.30417 42.6299 6.12138 42.6299 5.93079C42.6299 5.7402 42.7064 5.55741 42.8426 5.42264C42.9787 5.28787 43.1634 5.21216 43.356 5.21216H45.4833C46.0747 5.22266 46.6383 5.46255 47.0528 5.88021C47.4672 6.29786 47.6995 6.85988 47.6995 7.44531C47.6995 8.03073 47.4672 8.59275 47.0528 9.01041C46.6383 9.42806 46.0747 9.66795 45.4833 9.67846Z" fill="#295C7A"/>
<path d="M34.6956 42.9546H16.3045C16.1943 42.9546 16.0856 42.9297 15.9865 42.8818C15.8875 42.834 15.8007 42.7645 15.7329 42.6785C15.665 42.5926 15.6178 42.4925 15.5948 42.3858C15.5718 42.2791 15.5737 42.1687 15.6003 42.0628C15.8996 40.6416 16.6706 39.3603 17.7905 38.4227C18.9103 37.4852 20.3148 36.9452 21.7805 36.8887H29.2197C30.6853 36.9452 32.0898 37.4852 33.2097 38.4227C34.3296 39.3603 35.1005 40.6416 35.3999 42.0628C35.4265 42.1687 35.4283 42.2791 35.4053 42.3858C35.3824 42.4925 35.3352 42.5926 35.2673 42.6785C35.1994 42.7645 35.1127 42.834 35.0136 42.8818C34.9146 42.9297 34.8058 42.9546 34.6956 42.9546V42.9546ZM17.3087 41.5174H33.6915C33.3459 40.6094 32.7372 39.8225 31.9417 39.2554C31.1462 38.6883 30.1993 38.3663 29.2197 38.3295H21.7805C20.8008 38.3663 19.8539 38.6883 19.0585 39.2554C18.263 39.8225 17.6543 40.6094 17.3087 41.5174Z" fill="#295C7A"/>
<path d="M36.6618 42.9546H14.3384C14.1458 42.9546 13.9611 42.8789 13.825 42.7441C13.6888 42.6093 13.6123 42.4266 13.6123 42.236C13.6123 42.0454 13.6888 41.8626 13.825 41.7278C13.9611 41.593 14.1458 41.5173 14.3384 41.5173H36.6618C36.8543 41.5173 37.039 41.593 37.1752 41.7278C37.3113 41.8626 37.3878 42.0454 37.3878 42.236C37.3878 42.4266 37.3113 42.6093 37.1752 42.7441C37.039 42.8789 36.8543 42.9546 36.6618 42.9546Z" fill="#295C7A"/>
<path d="M50.186 27.6973H31.4238C31.3023 27.6974 31.1827 27.6673 31.076 27.6098C30.9692 27.5522 30.8788 27.4691 30.813 27.3679C30.7471 27.2668 30.708 27.1509 30.6992 27.0309C30.6904 26.911 30.7121 26.7907 30.7624 26.6812L38.7345 9.30901C38.7738 9.22283 38.8299 9.14516 38.8995 9.08045C38.9691 9.01574 39.051 8.96527 39.1404 8.93193C39.2297 8.89858 39.3249 8.88302 39.4203 8.88613C39.5158 8.88924 39.6097 8.91097 39.6967 8.95006C39.7836 8.98915 39.862 9.04484 39.9271 9.11394C39.9923 9.18304 40.0431 9.26419 40.0765 9.35274C40.11 9.4413 40.1254 9.53551 40.122 9.62999C40.1186 9.72447 40.0964 9.81735 40.0567 9.90332L32.5507 26.2601H49.0562L41.5567 9.90332C41.5174 9.81735 41.4955 9.72454 41.4923 9.63019C41.4892 9.53585 41.5049 9.44182 41.5384 9.35347C41.572 9.26511 41.6228 9.18417 41.688 9.11526C41.7532 9.04635 41.8315 8.99083 41.9183 8.95185C42.0052 8.91288 42.0989 8.89122 42.1943 8.88811C42.2896 8.885 42.3846 8.9005 42.4739 8.93374C42.5631 8.96697 42.6449 9.01728 42.7145 9.08179C42.7841 9.1463 42.8402 9.22376 42.8796 9.30973L50.8438 26.6819C50.8938 26.7911 50.9154 26.911 50.9067 27.0306C50.898 27.1501 50.8591 27.2657 50.7937 27.3666C50.7283 27.4675 50.6385 27.5507 50.5323 27.6085C50.4262 27.6662 50.3071 27.6968 50.186 27.6973V27.6973Z" fill="#295C7A"/>
<path d="M40.8793 36.8635H40.7282C34.9147 36.8635 30.6948 32.7069 30.6948 26.9794C30.6948 26.7888 30.7713 26.606 30.9075 26.4712C31.0436 26.3365 31.2283 26.2607 31.4209 26.2607H50.1859C50.3784 26.2607 50.5631 26.3365 50.6993 26.4712C50.8354 26.606 50.9119 26.7888 50.9119 26.9794C50.9119 32.7105 46.6921 36.8635 40.8793 36.8635ZM32.1724 27.698C32.4962 32.2843 35.9224 35.4262 40.7282 35.4262H40.8793C45.6843 35.4262 49.1113 32.2843 49.4344 27.698H32.1724Z" fill="#295C7A"/>
<path d="M40.8039 10.7033C40.0979 10.7034 39.4077 10.4963 38.8206 10.1082C38.2336 9.72006 37.776 9.16833 37.5057 8.52276C37.2355 7.8772 37.1647 7.16681 37.3024 6.48145C37.4401 5.79609 37.7801 5.16654 38.2793 4.67243C38.7785 4.17831 39.4146 3.84183 40.107 3.70554C40.7995 3.56925 41.5172 3.63927 42.1694 3.90675C42.8217 4.17423 43.3791 4.62715 43.7712 5.20822C44.1634 5.7893 44.3726 6.47243 44.3725 7.17121C44.3713 8.10762 43.995 9.00536 43.326 9.6675C42.657 10.3296 41.75 10.7021 40.8039 10.7033V10.7033ZM40.8039 5.07568C40.3851 5.07554 39.9757 5.19832 39.6275 5.42849C39.2792 5.65866 39.0077 5.98589 38.8474 6.36879C38.687 6.75168 38.645 7.17304 38.7266 7.57959C38.8082 7.98613 39.0098 8.35958 39.3059 8.65272C39.6019 8.94585 39.9792 9.14551 40.3899 9.22642C40.8006 9.30733 41.2263 9.26588 41.6132 9.10729C42.0001 8.94871 42.3308 8.68012 42.5635 8.3355C42.7962 7.99087 42.9204 7.5857 42.9204 7.17121C42.9198 6.61574 42.6966 6.08317 42.2999 5.69033C41.9031 5.29748 41.3651 5.07644 40.8039 5.07568Z" fill="#295C7A"/>
<path d="M19.5754 27.6974H0.813993C0.692511 27.6974 0.572979 27.6671 0.466346 27.6095C0.359714 27.5519 0.269389 27.4688 0.203645 27.3677C0.137902 27.2666 0.0988415 27.1507 0.0900421 27.0308C0.0812428 26.9109 0.102986 26.7907 0.153279 26.6812L8.12686 9.30905C8.20649 9.13542 8.35254 9.00021 8.53289 8.93317C8.71323 8.86612 8.9131 8.87273 9.08853 8.95154C9.26395 9.03035 9.40056 9.1749 9.4683 9.3534C9.53604 9.53191 9.52937 9.72973 9.44974 9.90336L1.94374 26.2601H18.4492L10.9498 9.90336C10.9081 9.81712 10.8842 9.7235 10.8795 9.628C10.8748 9.5325 10.8894 9.43704 10.9225 9.3472C10.9556 9.25736 11.0064 9.17495 11.072 9.10481C11.1377 9.03466 11.2168 8.97819 11.3048 8.93869C11.3928 8.8992 11.4878 8.87747 11.5844 8.87479C11.6809 8.87212 11.7771 8.88854 11.8671 8.9231C11.9572 8.95765 12.0394 9.00965 12.1089 9.07605C12.1784 9.14245 12.2338 9.22191 12.2719 9.30977L20.2368 26.682C20.287 26.7914 20.3086 26.9116 20.2997 27.0315C20.2907 27.1514 20.2516 27.2671 20.1858 27.3682C20.12 27.4692 20.0296 27.5523 19.923 27.6098C19.8163 27.6673 19.6968 27.6974 19.5754 27.6974V27.6974Z" fill="#295C7A"/>
<path d="M10.2716 36.8635H10.1206C4.30775 36.8635 0.0878906 32.7105 0.0878906 26.9794C0.0878906 26.7888 0.164386 26.606 0.300548 26.4712C0.436711 26.3365 0.621387 26.2607 0.81395 26.2607H19.579C19.7715 26.2607 19.9562 26.3365 20.0924 26.4712C20.2285 26.606 20.305 26.7888 20.305 26.9794C20.305 32.7105 16.0852 36.8635 10.2716 36.8635V36.8635ZM1.56542 27.698C1.88852 32.2843 5.31552 35.4262 10.1206 35.4262H10.2716C15.0774 35.4262 18.5037 32.2843 18.8275 27.698H1.56542Z" fill="#295C7A"/>
<path d="M10.196 10.7033C9.49005 10.7033 8.79993 10.4961 8.21294 10.1078C7.62596 9.71963 7.16847 9.16784 6.89834 8.52226C6.62821 7.87669 6.55757 7.16633 6.69535 6.48101C6.83313 5.7957 7.17314 5.16621 7.67239 4.67217C8.17164 4.17813 8.8077 3.84172 9.50013 3.70549C10.1926 3.56926 10.9102 3.63932 11.5624 3.90682C12.2146 4.17432 12.772 4.62724 13.1641 5.2083C13.5563 5.78936 13.7655 6.47246 13.7653 7.17121C13.7642 8.10775 13.3877 9.00559 12.7186 9.66775C12.0494 10.3299 11.1422 10.7023 10.196 10.7033V10.7033ZM10.196 5.07568C9.77728 5.07568 9.36794 5.19858 9.01977 5.42884C8.6716 5.6591 8.40024 5.98638 8.23999 6.36928C8.07975 6.75219 8.03782 7.17353 8.11951 7.58003C8.2012 7.98652 8.40285 8.35991 8.69894 8.65297C8.99503 8.94604 9.37228 9.14562 9.78298 9.22647C10.1937 9.30733 10.6194 9.26583 11.0062 9.10723C11.3931 8.94862 11.7238 8.68003 11.9564 8.33542C12.189 7.99081 12.3132 7.58567 12.3132 7.17121C12.3126 6.61561 12.0894 6.08294 11.6925 5.69008C11.2955 5.29721 10.7574 5.07625 10.196 5.07568V5.07568Z" fill="#295C7A"/>
</svg>
